nColumns=19
nRows=120
DataType=double
version=3
OpenSimVersion=4.1
endheader
time	ground_force_1_vx	ground_force_1_vy	ground_force_1_vz	ground_force_1_px	ground_force_1_py	ground_force_1_pz	ground_force_1_mx	ground_force_1_my	ground_force_1_mz	ground_force_2_vx	ground_force_2_vy	ground_force_2_vz	ground_force_2_px	ground_force_2_py	ground_force_2_pz	ground_force_2_mx	ground_force_2_my	ground_force_2_mz
0.233333	-15.7184	45.4901	-0.770624	0.584977	0	-0.252579	0	-0.580329	0	0	0	0	0	0	0	0	0	0
0.241667	-30.2858	118.142	-1.71595	0.589861	0	-0.274121	0	-0.639157	0	0	0	0	0	0	0	0	0	0
0.25	-43.9991	259.604	-1.432	0.588129	0	-0.286291	0	-1.10624	0	0	0	0	0	0	0	0	0	0
0.258333	-47.3845	461.449	1.67386	0.580515	0	-0.292395	0	-1.88214	0	0	0	0	0	0	0	0	0	0
0.266667	-36.5709	667.858	7.18323	0.568987	0	-0.29535	0	-2.77207	0	0	0	0	0	0	0	0	0	0
0.275	-24.3878	824.695	11.5017	0.55656	0	-0.296672	0	-3.53341	0	0	0	0	0	0	0	0	0	0
0.283333	-34.0203	923.327	10.6869	0.546694	0	-0.297269	0	-3.95243	0	0	0	0	0	0	0	0	0	0
0.291667	-68.8878	992.761	4.62762	0.541218	0	-0.297417	0	-3.91466	0	0	0	0	0	0	0	0	0	0
0.3	-106.426	1064.98	-3.0125	0.536467	0	-0.297054	0	-3.43022	0	0	0	0	0	0	0	0	0	0
0.308333	-125.728	1151.24	-8.80344	0.527422	0	-0.296574	0	-2.60526	0	0	0	0	0	0	0	0	0	0
0.316667	-121.621	1246.94	-12.1103	0.513871	0	-0.296322	0	-1.58545	0	0	0	0	0	0	0	0	0	0
0.325	-102.177	1339.86	-14.1496	0.499072	0	-0.296251	0	-0.505694	0	0	0	0	0	0	0	0	0	0
0.333333	-79.4655	1413.77	-16.132	0.485233	0	-0.296082	-0	0.535943	-0	0	0	0	0	0	0	0	0	0
0.341667	-60.1289	1457.52	-18.6414	0.472659	0	-0.295576	-0	1.48038	-0	0	0	0	0	0	0	0	0	0
0.35	-45.1018	1470.9	-21.7256	0.461047	0	-0.294832	-0	2.29542	-0	0	0	0	0	0	0	0	0	0
0.358333	-31.2476	1459.91	-24.8603	0.449928	0	-0.29402	-0	2.96056	-0	0	0	0	0	0	0	0	0	0
0.366667	-16.9384	1428.87	-27.2992	0.439015	0	-0.293121	-0	3.45695	-0	0	0	0	0	0	0	0	0	0
0.375	-2.92263	1379.98	-28.7566	0.428389	0	-0.292033	-0	3.76449	-0	0	0	0	0	0	0	0	0	0
0.383333	9.99983	1315.59	-29.4306	0.418311	0	-0.290703	-0	3.8632	-0	0	0	0	0	0	0	0	0	0
0.391667	21.5727	1238.06	-29.3801	0.408899	0	-0.289216	-0	3.73632	-0	0	0	0	0	0	0	0	0	0
0.4	32.1367	1150.56	-28.1061	0.39986	0	-0.28781	-0	3.3753	-0	0	0	0	0	0	0	0	0	0
0.408333	41.7409	1057.86	-24.7918	0.390673	0	-0.286692	-0	2.78769	-0	0	0	0	0	0	0	0	0	0
0.416667	51.8932	964.714	-19.0217	0.380996	0	-0.285893	-0	2.00518	-0	0	0	0	0	0	0	0	0	0
0.425	62.7117	873.058	-11.3463	0.3706	0	-0.285451	-0	1.08662	-0	0	0	0	0	0	0	0	0	0
0.433333	71.7615	782.706	-3.09271	0.359558	0	-0.285374	-0	0.111235	-0	0	0	0	0	0	0	0	0	0
0.441667	77.2185	692.882	4.46297	0.348263	0	-0.285539	0	-0.836302	0	0	0	0	0	0	0	0	0	0
0.45	79.388	603.476	10.6796	0.336738	0	-0.285607	0	-1.68222	0	0	0	0	0	0	0	0	0	0
0.458333	79.6693	515.658	15.3403	0.324833	0	-0.285131	0	-2.37472	0	0	0	0	0	0	0	0	0	0
0.466667	78.0535	430.079	18.2561	0.312696	0	-0.283988	0	-2.88763	0	0	0	0	0	0	0	0	0	0
0.475	74.5382	347.86	19.324	0.300169	0	-0.282195	0	-3.21817	0	0	0	0	0	0	0	0	0	0
0.483333	69.8448	272.395	18.7145	0.287847	0	-0.279301	0	-3.38085	0	0	0	0	0	0	0	0	0	0
0.491667	63.8854	207.206	16.7823	0.277795	0	-0.274487	0	-3.39935	0	0	0	0	0	0	0	0	0	0
0.5	55.9452	153.727	13.9124	0.271668	0	-0.267152	0	-3.29887	0	0	0	0	0	0	0	0	0	0
0.508333	46.0729	111.64	10.581	0.271781	0	-0.257313	0	-3.10092	0	0	0	0	0	0	0	0	0	0
0.516667	36.1808	79.8488	7.41002	0.281313	0	-0.244723	0	-2.8216	0	0	0	0	0	0	0	0	0	0
0.525	28.1009	56.7471	4.90312	0.30044	0	-0.227756	0	-2.47326	0	0	0	0	0	0	0	0	0	0
0.533333	21.8799	40.2815	3.14737	0.329168	0	-0.204917	0	-2.06955	0	0	0	0	0	0	0	0	0	0
0.541667	15.9985	28.5809	1.93422	0.373229	0	-0.178866	0	-1.63253	0	0	0	0	0	0	0	0	0	0
0.55	0	0	0	0	0	0	0	0	0	0	0	0	0	0	0	0	0	0
0.558333	0	0	0	0	0	0	0	0	0	0	0	0	0	0	0	0	0	0
0.566667	0	0	0	0	0	0	0	0	0	-7.19578	31.364	1.22175	0.55994	0	-0.283154	0	-0.520248	0
0.575	0	0	0	0	0	0	0	0	0	-17.9176	67.1465	2.4033	0.576444	0	-0.351168	0	-0.354879	0
0.583333	0	0	0	0	0	0	0	0	0	-27.7193	151.015	4.60303	0.575784	0	-0.378167	0	-0.32045	0
0.591667	0	0	0	0	0	0	0	0	0	-33.2596	299.275	7.70609	0.56987	0	-0.383655	0	-0.398156	0
0.6	0	0	0	0	0	0	0	0	0	-34.5458	489.085	10.8149	0.563265	0	-0.382379	0	-0.56165	0
0.608333	0	0	0	0	0	0	0	0	0	-33.2633	665.093	12.8514	0.556685	0	-0.380866	0	-0.800802	0
0.616667	0	0	0	0	0	0	0	0	0	-35.2339	793.909	14.2821	0.548437	0	-0.381853	0	-1.13642	0
0.625	0	0	0	0	0	0	0	0	0	-50.3504	885.897	17.704	0.538675	0	-0.385079	0	-1.60932	0
0.633333	0	0	0	0	0	0	0	0	0	-74.0498	970.329	25.4099	0.529735	0	-0.387933	0	-2.24486	0
0.641667	0	0	0	0	0	0	0	0	0	-93.0199	1064.73	36.3397	0.521398	0	-0.389036	0	-3.0187	0
0.65	0	0	0	0	0	0	0	0	0	-100.879	1164.56	46.6927	0.511463	0	-0.389378	0	-3.85403	0
0.658333	0	0	0	0	0	0	0	0	0	-96.1215	1258.01	53.7128	0.499431	0	-0.389922	0	-4.65413	0
0.666667	0	0	0	0	0	0	0	0	0	-83.2495	1335.82	57.9679	0.486719	0	-0.39075	0	-5.34386	0
0.675	0	0	0	0	0	0	0	0	0	-66.8368	1391.22	61.7034	0.473989	0	-0.391569	0	-5.8911	0
0.683333	0	0	0	0	0	0	0	0	0	-49.5699	1419.41	65.9376	0.461488	0	-0.39236	0	-6.30166	0
0.691667	0	0	0	0	0	0	0	0	0	-33.4636	1418.81	70.028	0.449547	0	-0.393272	0	-6.6011	0
0.7	0	0	0	0	0	0	0	0	0	-18.8918	1391.72	73.101	0.438238	0	-0.394251	0	-6.81702	0
0.708333	0	0	0	0	0	0	0	0	0	-5.24866	1341.94	74.7882	0.427651	0	-0.395201	0	-6.96638	0
0.716667	0	0	0	0	0	0	0	0	0	8.48631	1273.11	75.0969	0.417763	0	-0.396065	0	-7.04838	0
0.725	0	0	0	0	0	0	0	0	0	21.6735	1188.22	74.0405	0.408243	0	-0.396872	0	-7.04275	0
0.733333	0	0	0	0	0	0	0	0	0	33.4855	1091.86	71.24	0.399101	0	-0.397659	0	-6.91501	0
0.741667	0	0	0	0	0	0	0	0	0	43.8463	989.975	66.1017	0.390404	0	-0.398296	0	-6.62943	0
0.75	0	0	0	0	0	0	0	0	0	52.3358	887.564	58.3928	0.381538	0	-0.398507	0	-6.16742	0
0.758333	0	0	0	0	0	0	0	0	0	60.5913	789.382	48.3672	0.37187	0	-0.397883	0	-5.54495	0
0.766667	0	0	0	0	0	0	0	0	0	69.351	697.671	36.6632	0.36133	0	-0.39642	0	-4.82107	0
0.775	0	0	0	0	0	0	0	0	0	77.16	611.626	24.4919	0.349945	0	-0.39454	0	-4.09143	0
0.783333	0	0	0	0	0	0	0	0	0	82.1597	530.956	13.5717	0.338397	0	-0.392401	0	-3.46534	0
0.791667	0	0	0	0	0	0	0	0	0	84.2531	456.831	5.33157	0.327873	0	-0.389683	0	-3.03363	0
0.8	0	0	0	0	0	0	0	0	0	84.4131	389.652	0.104246	0.318632	0	-0.38604	0	-2.84184	0
0.808333	0	0	0	0	0	0	0	0	0	82.1044	327.772	-2.77801	0.309274	0	-0.382061	0	-2.88057	0
0.816667	0	0	0	0	0	0	0	0	0	76.9219	270.369	-4.169	0.299459	0	-0.37838	0	-3.0945	0
0.825	0	0	0	0	0	0	0	0	0	69.0151	217.999	-4.50504	0.290564	0	-0.374776	0	-3.40159	0
0.833333	0	0	0	0	0	0	0	0	0	59.2197	171.547	-3.90283	0.28421	0	-0.37032	0	-3.71221	0
0.841667	0	0	0	0	0	0	0	0	0	48.2893	131.719	-2.57693	0.282007	0	-0.363909	0	-3.94363	0
0.85	0	0	0	0	0	0	0	0	0	36.7797	98.7724	-0.966227	0.285782	0	-0.354687	0	-4.02989	0
0.858333	0	0	0	0	0	0	0	0	0	26.4326	72.6069	0.532844	0.297886	0	-0.341911	0	-3.92875	0
0.866667	0	0	0	0	0	0	0	0	0	18.1252	52.4101	1.76683	0.318483	0	-0.324675	0	-3.6257	0
0.875	0	0	0	0	0	0	0	0	0	11.117	37.3274	2.60645	0.347217	0	-0.300625	0	-3.13503	0
0.883333	0	0	0	0	0	0	0	0	0	4.43959	27.4559	2.67214	0.391048	0	-0.266798	0	-2.49943	0
0.891667	0	0	0	0	0	0	0	0	0	0	0	0	0	0	0	0	0	0
0.9	-14.35	37.4822	-1.43214	0.547983	0	-0.208636	0	-1.09754	0	0	0	0	0	0	0	0	0	0
0.908333	-30.1391	82.2169	-6.02611	0.582999	0	-0.220423	0	-0.533437	0	0	0	0	0	0	0	0	0	0
0.916667	-48.7348	185.869	-11.5727	0.588098	0	-0.234804	0	-0.20068	0	0	0	0	0	0	0	0	0	0
0.925	-60.2654	357.562	-16.2473	0.582848	0	-0.243755	0	-0.172714	0	0	0	0	0	0	0	0	0	0
0.933333	-53.8649	559.872	-18.2804	0.572271	0	-0.248644	0	-0.465467	0	0	0	0	0	0	0	0	0	0
0.941667	-36.1624	736.983	-18.0912	0.559109	0	-0.250899	0	-1.02394	0	0	0	0	0	0	0	0	0	0
0.95	-32.3067	865.65	-18.3753	0.547529	0	-0.251737	0	-1.73458	0	0	0	0	0	0	0	0	0	0
0.958333	-56.9196	957.856	-21.0362	0.54074	0	-0.251975	0	-2.46001	0	0	0	0	0	0	0	0	0	0
0.966667	-95.5726	1036.53	-25.2485	0.536599	0	-0.251733	0	-3.07633	0	0	0	0	0	0	0	0	0	0
0.975	-123.932	1117.88	-29.1848	0.52979	0	-0.251277	0	-3.49495	0	0	0	0	0	0	0	0	0	0
0.983333	-129.902	1206.17	-32.1142	0.518153	0	-0.250927	0	-3.6677	0	0	0	0	0	0	0	0	0	0
0.991667	-116.663	1296.43	-34.4731	0.504251	0	-0.250641	0	-3.58372	0	0	0	0	0	0	0	0	0	0
1	-94.9738	1376.03	-36.8783	0.490795	0	-0.250259	0	-3.26472	0	0	0	0	0	0	0	0	0	0
1.00833	-74.13	1429.52	-39.5487	0.478129	0	-0.24958	0	-2.75947	0	0	0	0	0	0	0	0	0	0
1.01667	-57.5938	1449.2	-42.4656	0.466157	0	-0.248536	0	-2.13717	0	0	0	0	0	0	0	0	0	0
1.025	-44.043	1438.72	-45.4142	0.454852	0	-0.247229	0	-1.47969	0	0	0	0	0	0	0	0	0	0
1.03333	-31.4503	1405.32	-47.8629	0.443923	0	-0.245748	0	-0.872601	0	0	0	0	0	0	0	0	0	0
1.04167	-18.5462	1354.44	-49.2183	0.433436	0	-0.244156	0	-0.3946	0	0	0	0	0	0	0	0	0	0
1.05	-4.77706	1289.62	-49.0552	0.423193	0	-0.242477	0	-0.106245	0	0	0	0	0	0	0	0	0	0
1.05833	9.4533	1214.43	-47.1425	0.412731	0	-0.240732	0	-0.040271	0	0	0	0	0	0	0	0	0	0
1.06667	23.939	1133.27	-43.4281	0.402049	0	-0.239075	0	-0.19604	0	0	0	0	0	0	0	0	0	0
1.075	38.1322	1049.16	-37.9665	0.390928	0	-0.23766	0	-0.539859	0	0	0	0	0	0	0	0	0	0
1.08333	51.8016	963.685	-31.0236	0.378954	0	-0.23655	0	-1.01146	0	0	0	0	0	0	0	0	0	0
1.09167	64.4296	877.472	-23.2414	0.366296	0	-0.235762	0	-1.53562	0	0	0	0	0	0	0	0	0	0
1.1	74.1608	789.857	-15.4842	0.353345	0	-0.235239	0	-2.03678	0	0	0	0	0	0	0	0	0	0
1.10833	80.3766	700.706	-8.47857	0.340458	0	-0.234859	0	-2.45304	0	0	0	0	0	0	0	0	0	0
1.11667	83.85	611.488	-2.58758	0.327932	0	-0.234413	0	-2.74597	0	0	0	0	0	0	0	0	0	0
1.125	85.3811	524.342	2.06223	0.315941	0	-0.233737	0	-2.90408	0	0	0	0	0	0	0	0	0	0
1.13333	84.818	441.417	5.39647	0.305053	0	-0.232864	0	-2.94039	0	0	0	0	0	0	0	0	0	0
1.14167	81.6229	364.705	7.50624	0.295553	0	-0.231653	0	-2.88548	0	0	0	0	0	0	0	0	0	0
1.15	76.21	295.754	8.66101	0.286666	0	-0.229755	0	-2.77796	0	0	0	0	0	0	0	0	0	0
1.15833	69.4562	235.9	9.07833	0.277841	0	-0.227112	0	-2.65479	0	0	0	0	0	0	0	0	0	0
1.16667	61.6168	185.817	8.86279	0.269037	0	-0.223614	0	-2.54466	0	0	0	0	0	0	0	0	0	0
1.175	52.7645	144.764	8.10187	0.259996	0	-0.218904	0	-2.46605	0	0	0	0	0	0	0	0	0	0
1.18333	43.9187	111.71	6.95816	0.252196	0	-0.212823	0	-2.42909	0	0	0	0	0	0	0	0	0	0
1.19167	36.2214	85.9737	5.70047	0.248947	0	-0.205314	0	-2.43861	0	0	0	0	0	0	0	0	0	0
1.2	30.0232	66.3118	4.58116	0.25219	0	-0.196485	0	-2.49573	0	0	0	0	0	0	0	0	0	0
1.20833	24.7772	50.9463	3.69771	0.262424	0	-0.186282	0	-2.59654	0	0	0	0	0	0	0	0	0	0
1.21667	19.7848	38.4454	3.01034	0.280929	0	-0.173323	0	-2.72835	0	0	0	0	0	0	0	0	0	0
1.225	14.8244	28.2806	2.46437	0.314986	0	-0.1566	0	-2.86442	0	0	0	0	0	0	0	0	0	0
